<svg xmlns="http://www.w3.org/2000/svg" width="674" height="349"><defs><linearGradient id="c" x1=".501" x2=".437" y1=".477" y2="1.548" gradientUnits="objectBoundingBox"><stop offset="0" stop-color="#bde4c6"/><stop offset="1" stop-color="#5dbc74"/></linearGradient><linearGradient id="d" x1=".496" x2=".503" y1="-.111" y2=".945" gradientUnits="objectBoundingBox"><stop offset="0" stop-color="#88ce99"/><stop offset="1" stop-color="#36ac53"/></linearGradient><linearGradient id="e" x1=".499" x2=".487" y1=".631" y2="2.356" gradientUnits="objectBoundingBox"><stop offset="0" stop-color="#cfebd6"/><stop offset="1" stop-color="#5dbc74"/></linearGradient><linearGradient id="f" x1=".493" x2=".429" y1=".608" y2="1.678" gradientUnits="objectBoundingBox"><stop offset="0" stop-color="#bde4c6"/><stop offset="1" stop-color="#9dd7ab"/></linearGradient><linearGradient id="g" x1=".526" x2=".47" y1=".094" y2=".964" gradientUnits="objectBoundingBox"><stop offset="0" stop-color="#7fca92"/><stop offset="1" stop-color="#5dbc74"/></linearGradient><linearGradient id="h" x1=".533" x2=".474" y1=".129" y2=".827" gradientUnits="objectBoundingBox"><stop offset="0" stop-color="#58ba70"/><stop offset="1" stop-color="#26a645"/></linearGradient><linearGradient id="i" x1=".504" x2=".493" y1=".177" y2="1.007" gradientUnits="objectBoundingBox"><stop offset="0" stop-color="#a1d8af"/><stop offset="1" stop-color="#5dbc74"/></linearGradient><clipPath id="a"><path fill="#333" d="M183 130h674v349H183z" data-name="Rectangle 31419" opacity=".4"/></clipPath><clipPath id="b"><path fill="#fff" stroke="#707070" d="M15598.095 16371.747h474v260h-474z" data-name="Rectangle 31299"/></clipPath></defs><g clip-path="url(#a)" data-name="Mask Group 102" transform="translate(-183 -130)"><g data-name="Group 55709"><g data-name="Group 55219" transform="translate(43 -47)"><ellipse cx="279.5" cy="25.5" fill="#e7f3ef" data-name="Ellipse 3386" opacity=".446" rx="279.5" ry="25.5" transform="translate(209 467)"/><g clip-path="url(#b)" data-name="Mask Group 101" transform="translate(-15339.095 -16139.747)"><g data-name="Group 55218"><path fill="none" stroke="#fff" stroke-width="5" d="M15714.847 16539.873v1.285" data-name="Line 887"/><path fill="#c1e6ca" d="M15915.024 16409.779h43.644v1.531h-43.644z" data-name="Rectangle 31127"/><path fill="#8fd19f" d="M15959.333 16414.277h1.464v6.125h-1.464z" data-name="Rectangle 31128"/><path fill="#76c78a" d="m15673.441 16491.014-3.472-.71v-5.1l3.472.837Z" data-name="Path 98512"/><path fill="none" stroke="#3fb05b" d="M15669.969 16490.304v-5.1l3.472.837" data-name="Path 98513"/><path fill="#76c78a" d="m15673.441 16498.427-3.472-.711v-5.1l3.472.831Z" data-name="Path 98514"/><path fill="none" stroke="#3fb05b" d="M15669.969 16497.716v-5.1l3.472.831" data-name="Path 98515"/><path fill="#76c78a" d="m15673.441 16505.84-3.472-.712v-5.1l3.472.824Z" data-name="Path 98516"/><path fill="none" stroke="#3fb05b" d="M15669.969 16505.128v-5.1l3.472.824" data-name="Path 98517"/><path fill="#76c78a" d="m15673.441 16513.253-3.472-.714v-5.1l3.472.817Z" data-name="Path 98518"/><path fill="none" stroke="#3fb05b" d="M15669.969 16512.54v-5.1l3.472.817" data-name="Path 98519"/><path fill="#76c78a" d="m15673.441 16520.665-3.472-.715v-5.1l3.472.811Z" data-name="Path 98520"/><path fill="none" stroke="#3fb05b" d="M15669.969 16519.951v-5.1l3.472.811" data-name="Path 98521"/><path fill="#76c78a" d="m15673.441 16528.078-3.472-.716v-5.1l3.472.8Z" data-name="Path 98522"/><path fill="none" stroke="#3fb05b" d="M15669.969 16527.362v-5.1l3.472.8" data-name="Path 98523"/><path fill="#76c78a" d="m15673.441 16535.492-3.472-.718v-5.1l3.472.8Z" data-name="Path 98524"/><path fill="none" stroke="#3fb05b" d="M15669.969 16534.774v-5.1l3.472.8" data-name="Path 98525"/><path fill="#76c78a" d="m15673.441 16542.905-3.472-.719v-5.1l3.472.791Z" data-name="Path 98526"/><path fill="none" stroke="#3fb05b" d="M15669.969 16542.186v-5.1l3.472.791" data-name="Path 98527"/><path fill="#76c78a" d="m15664.901 16487.016-3.472-.71v-5.1l3.472.837Z" data-name="Path 98547"/><path fill="none" stroke="#3fb05b" d="M15661.429 16486.306v-5.1l3.472.837" data-name="Path 98548"/><path fill="#76c78a" d="m15664.901 16494.429-3.472-.711v-5.1l3.472.831Z" data-name="Path 98549"/><path fill="none" stroke="#3fb05b" d="M15661.429 16493.718v-5.1l3.472.831" data-name="Path 98550"/><path fill="#76c78a" d="m15664.901 16501.841-3.472-.712v-5.1l3.472.824Z" data-name="Path 98551"/><path fill="none" stroke="#3fb05b" d="M15661.429 16501.129v-5.1l3.472.824" data-name="Path 98552"/><path fill="#76c78a" d="m15664.901 16509.254-3.472-.714v-5.1l3.472.817Z" data-name="Path 98553"/><path fill="none" stroke="#3fb05b" d="M15661.429 16508.541v-5.1l3.472.817" data-name="Path 98554"/><path fill="#76c78a" d="m15664.901 16516.667-3.472-.715v-5.1l3.472.811Z" data-name="Path 98555"/><path fill="none" stroke="#3fb05b" d="M15661.429 16515.953v-5.1l3.472.811" data-name="Path 98556"/><path fill="#76c78a" d="m15664.901 16524.081-3.472-.716v-5.1l3.472.8Z" data-name="Path 98557"/><path fill="none" stroke="#3fb05b" d="M15661.429 16523.364v-5.1l3.472.8" data-name="Path 98558"/><path fill="#76c78a" d="m15664.901 16531.494-3.472-.717v-5.1l3.472.8Z" data-name="Path 98559"/><path fill="none" stroke="#3fb05b" d="M15661.429 16530.776v-5.1l3.472.8" data-name="Path 98560"/><path fill="#76c78a" d="m15664.901 16538.907-3.472-.719v-5.1l3.472.791Z" data-name="Path 98561"/><path fill="none" stroke="#3fb05b" d="M15661.429 16538.188v-5.1l3.472.791" data-name="Path 98562"/><path fill="#76c78a" d="m15664.901 16546.319-3.472-.72v-5.1l3.472.784Z" data-name="Path 98563"/><path fill="none" stroke="#3fb05b" d="M15661.429 16545.595v-5.1l3.472.784" data-name="Path 98564"/><path fill="#76c78a" d="m15655.701 16483.779-3.472-.71v-5.1l3.472.837Z" data-name="Path 98582"/><path fill="none" stroke="#3fb05b" d="M15652.229 16483.07v-5.1l3.472.837" data-name="Path 98583"/><path fill="#76c78a" d="m15655.701 16491.192-3.472-.711v-5.1l3.472.831Z" data-name="Path 98584"/><path fill="none" stroke="#3fb05b" d="M15652.229 16490.482v-5.1l3.472.831" data-name="Path 98585"/><path fill="#76c78a" d="m15655.701 16498.606-3.472-.712v-5.1l3.472.824Z" data-name="Path 98586"/><path fill="none" stroke="#3fb05b" d="M15652.229 16497.893v-5.1l3.472.824" data-name="Path 98587"/><path fill="#76c78a" d="m15655.701 16506.019-3.472-.714v-5.1l3.472.817Z" data-name="Path 98588"/><path fill="none" stroke="#3fb05b" d="M15652.229 16505.305v-5.1l3.472.817" data-name="Path 98589"/><path fill="#76c78a" d="m15655.701 16513.432-3.472-.715v-5.1l3.472.81Z" data-name="Path 98590"/><path fill="none" stroke="#3fb05b" d="M15652.229 16512.717v-5.1l3.472.81" data-name="Path 98591"/><path fill="#76c78a" d="m15655.701 16520.845-3.472-.716v-5.1l3.472.8Z" data-name="Path 98592"/><path fill="none" stroke="#3fb05b" d="M15652.229 16520.124v-5.1l3.472.8" data-name="Path 98593"/><path fill="#76c78a" d="m15655.701 16528.257-3.472-.717v-5.103l3.472.8Z" data-name="Path 98594"/><path fill="none" stroke="#3fb05b" d="M15652.229 16527.537v-5.1l3.472.8" data-name="Path 98595"/><path fill="#76c78a" d="m15655.701 16535.67-3.472-.719v-5.1l3.472.791Z" data-name="Path 98596"/><path fill="none" stroke="#3fb05b" d="M15652.229 16534.951v-5.1l3.472.791" data-name="Path 98597"/><path fill="#76c78a" d="m15655.701 16543.083-3.472-.72v-5.1l3.472.784Z" data-name="Path 98598"/><path fill="none" stroke="#3fb05b" d="M15652.229 16542.365v-5.1l3.472.784" data-name="Path 98599"/><path fill="#76c78a" d="m15648.039 16510.52-3.472-.712v-5.1l3.472.824Z" data-name="Path 98616"/><path fill="none" stroke="#3fb05b" d="M15644.567 16509.807v-5.1l3.472.824" data-name="Path 98617"/><path fill="#76c78a" d="m15648.039 16517.933-3.472-.714v-5.1l3.472.817Z" data-name="Path 98618"/><path fill="none" stroke="#3fb05b" d="M15644.567 16517.219v-5.1l3.472.817" data-name="Path 98619"/><path fill="#76c78a" d="m15648.039 16525.346-3.472-.715v-5.1l3.472.811Z" data-name="Path 98620"/><path fill="none" stroke="#3fb05b" d="M15644.567 16524.631v-5.1l3.472.811" data-name="Path 98621"/><path fill="#76c78a" d="m15648.039 16538.904-3.472-.716v-5.1l3.472.8Z" data-name="Path 98622"/><path fill="none" stroke="#3fb05b" d="M15644.567 16538.188v-5.1l3.472.8" data-name="Path 98623"/><path fill="#76c78a" d="m15648.039 16546.317-3.472-.717v-5.1l3.472.8Z" data-name="Path 98624"/><path fill="none" stroke="#3fb05b" d="M15644.567 16545.6v-5.1l3.472.8" data-name="Path 98625"/><path fill="#76c78a" d="m15683.538 16493.539-3.472-.71v-5.1l3.472.837Z" data-name="Path 98629"/><path fill="none" stroke="#3fb05b" d="M15680.066 16492.829v-5.1l3.472.837" data-name="Path 98630"/><path fill="#76c78a" d="m15683.538 16500.952-3.472-.711v-5.1l3.472.83Z" data-name="Path 98631"/><path fill="none" stroke="#3fb05b" d="M15680.066 16500.241v-5.1l3.472.83" data-name="Path 98632"/><path fill="#76c78a" d="m15683.538 16508.365-3.472-.712v-5.1l3.472.824Z" data-name="Path 98633"/><path fill="none" stroke="#3fb05b" d="M15680.066 16507.653v-5.1l3.472.824" data-name="Path 98634"/><path fill="#76c78a" d="m15683.538 16515.777-3.472-.714v-5.1l3.472.817Z" data-name="Path 98635"/><path fill="none" stroke="#3fb05b" d="M15680.066 16515.064v-5.1l3.472.817" data-name="Path 98636"/><path fill="#76c78a" d="m15683.538 16523.19-3.472-.715v-5.1l3.472.811Z" data-name="Path 98637"/><path fill="none" stroke="#3fb05b" d="M15680.066 16522.476v-5.1l3.472.811" data-name="Path 98638"/><path fill="#76c78a" d="m15683.538 16530.604-3.472-.716v-5.1l3.472.8Z" data-name="Path 98639"/><path fill="none" stroke="#3fb05b" d="M15680.066 16529.887v-5.1l3.472.8" data-name="Path 98640"/><path fill="#76c78a" d="m15683.538 16538.017-3.472-.718v-5.1l3.472.8Z" data-name="Path 98641"/><path fill="none" stroke="#3fb05b" d="M15680.066 16537.299v-5.1l3.472.8" data-name="Path 98642"/><path fill="#76c78a" d="m15683.538 16545.43-3.472-.719v-5.1l3.472.791Z" data-name="Path 98643"/><path fill="none" stroke="#3fb05b" d="M15680.066 16544.711v-5.1l3.472.791" data-name="Path 98644"/><path fill="#76c78a" d="m15694.233 16497.452-3.472-.71v-5.1l3.472.837Z" data-name="Path 98664"/><path fill="none" stroke="#3fb05b" d="M15690.761 16496.742v-5.1l3.472.837" data-name="Path 98665"/><path fill="#76c78a" d="m15694.233 16504.865-3.472-.711v-5.1l3.472.83Z" data-name="Path 98666"/><path fill="none" stroke="#3fb05b" d="M15690.761 16504.154v-5.1l3.472.83" data-name="Path 98667"/><path fill="#76c78a" d="m15694.233 16512.278-3.472-.712v-5.1l3.472.824Z" data-name="Path 98668"/><path fill="none" stroke="#3fb05b" d="M15690.761 16511.566v-5.1l3.472.824" data-name="Path 98669"/><path fill="#76c78a" d="m15694.233 16519.691-3.472-.714v-5.1l3.472.817Z" data-name="Path 98670"/><path fill="none" stroke="#3fb05b" d="M15690.761 16518.978v-5.1l3.472.817" data-name="Path 98671"/><path fill="#76c78a" d="m15694.233 16527.104-3.472-.715v-5.1l3.472.81Z" data-name="Path 98672"/><path fill="none" stroke="#3fb05b" d="M15690.761 16526.389v-5.1l3.472.81" data-name="Path 98673"/><path fill="#76c78a" d="m15694.233 16534.517-3.472-.716v-5.1l3.472.8Z" data-name="Path 98674"/><path fill="none" stroke="#3fb05b" d="M15690.761 16533.801v-5.1l3.472.8" data-name="Path 98675"/><path fill="#76c78a" d="m15694.233 16541.929-3.472-.717v-5.1l3.472.8Z" data-name="Path 98676"/><path fill="none" stroke="#3fb05b" d="M15690.761 16541.212v-5.1l3.472.8" data-name="Path 98677"/><path fill="#76c78a" d="m15703.652 16501.173-3.472-.709v-5.1l3.472.837Z" data-name="Path 98699"/><path fill="none" stroke="#3fb05b" d="M15700.18 16500.459v-5.1l3.472.837" data-name="Path 98700"/><path fill="#76c78a" d="m15703.652 16508.581-3.472-.711v-5.1l3.472.83Z" data-name="Path 98701"/><path fill="none" stroke="#3fb05b" d="M15700.18 16507.871v-5.1l3.472.83" data-name="Path 98702"/><path fill="#76c78a" d="m15703.652 16515.995-3.472-.712v-5.1l3.472.824Z" data-name="Path 98703"/><path fill="none" stroke="#3fb05b" d="M15700.18 16515.282v-5.1l3.472.824" data-name="Path 98704"/><path fill="#76c78a" d="m15703.652 16523.407-3.472-.714v-5.1l3.472.817Z" data-name="Path 98705"/><path fill="none" stroke="#3fb05b" d="M15700.18 16522.693v-5.1l3.472.817" data-name="Path 98706"/><path fill="#76c78a" d="m15703.652 16530.82-3.472-.715v-5.1l3.472.811Z" data-name="Path 98707"/><path fill="none" stroke="#3fb05b" d="M15700.18 16530.105v-5.1l3.472.811" data-name="Path 98708"/><path fill="#76c78a" d="m15703.652 16538.233-3.472-.716v-5.1l3.472.8Z" data-name="Path 98709"/><path fill="none" stroke="#3fb05b" d="M15700.18 16537.517v-5.1l3.472.8" data-name="Path 98710"/><path fill="#76c78a" d="m15703.652 16545.646-3.472-.718v-5.1l3.472.8Z" data-name="Path 98711"/><path fill="none" stroke="#3fb05b" d="M15700.18 16544.928v-5.1l3.472.8" data-name="Path 98712"/><path fill="#76c78a" d="M478.666 584.022s60.052 35 60.531 35v12.25l-61.629-36.322Z" data-name="Path 98733" opacity=".49" style="mix-blend-mode:screen;isolation:isolate" transform="translate(15166.39 15896.431)"/><path fill="#1ba13c" d="m15710.1 16507.31 25.588-5.646v-.851l-25.588 5.615Z" data-name="Path 98789"/><path fill="#1ba13c" d="m15710.1 16545.639 25.588-5.646v-.851l-25.588 5.617Z" data-name="Path 98801"/><path fill="#1ba13c" d="m15710.1 16538.058 25.588-5.646v-.846l-25.588 5.61Z" data-name="Path 98802"/><path fill="#1ba13c" d="m15710.1 16530.336 25.588-5.646v-.851l-25.588 5.615Z" data-name="Path 98803"/><path fill="#1ba13c" d="m15710.1 16522.617 25.588-5.646v-.854l-25.588 5.615Z" data-name="Path 98804"/><path fill="#1ba13c" d="m15710.1 16514.891 25.588-5.646v-.851l-25.588 5.615Z" data-name="Path 98805"/><path fill="#d8efde" d="M15738.722 16480.226v9.358h30.943v-10.183h-30.943Z" data-name="Path 98808"/><path fill="#96d4a5" d="m15716.223 16485.217 22.5-4.99v9.357h-3.035l-19.464 4.4Z" data-name="Path 98809"/><path fill="#26a645" d="m15713.135 16485.898 25.588-5.646v-.851l-25.588 5.615Z" data-name="Path 98810"/><path fill="#5dbc74" d="M15738.723 16479.402h32.19v.825h-32.19z" data-name="Rectangle 31233"/><path fill="none" stroke="#fff" stroke-width="5" d="M15790.29 16502.213v1.285" data-name="Line 894"/><path fill="none" stroke="#fff" stroke-width="5" d="M15985.181 16499.708v1.285" data-name="Line 898"/><path fill="#9fd8ad" d="M15903.483 16460.33h36.058v18.205h-36.058z" data-name="Rectangle 31130"/><path fill="none" stroke="#fff" stroke-width="6" d="M15903.483 16485.34h36.157" data-name="Line 899"/><path fill="none" stroke="#fff" stroke-width="6" d="M15903.483 16491.811h36.12" data-name="Line 900"/><path fill="none" stroke="#fff" stroke-width="6" d="M15903.483 16498.281h36.082" data-name="Line 901"/><path fill="none" stroke="#fff" stroke-width="6" d="M15903.483 16504.752h36.044" data-name="Line 902"/><path fill="none" stroke="#fff" stroke-width="6" d="M15903.483 16511.223h36.006" data-name="Line 903"/><path fill="none" stroke="#fff" stroke-width="6" d="M15903.483 16517.693h35.968" data-name="Line 904"/><path fill="none" stroke="#fff" stroke-width="6" d="M15903.483 16524.164h35.931" data-name="Line 905"/><path fill="none" stroke="#fff" stroke-width="6" d="M15903.483 16530.635h35.893" data-name="Line 906"/><path fill="none" stroke="#fff" stroke-width="6" d="M15903.483 16537.106h35.855" data-name="Line 907"/><path fill="none" stroke="#fff" stroke-width="6" d="M15903.483 16543.576h35.817" data-name="Line 908"/><path fill="#81cb94" d="M15973.975 16459.175h27.83v54.687h-27.83z" data-name="Rectangle 31131"/><path fill="#eaf7ed" d="M15982.04 16465.605h13.757v8.617h-13.757z" data-name="Rectangle 31132" opacity=".73"/><path fill="#91d2a1" d="M15960.218 16474.886v7.292l9.171-4.375v-8.617Z" data-name="Path 98491" opacity=".67"/><path fill="#b4e0bf" d="M15973.975 16478.597h27.83v2.784h-27.83z" data-name="Rectangle 31133"/><path fill="#4fb769" d="M15973.975 16481.381h27.83v.365h-27.83z" data-name="Rectangle 31134"/><path fill="#b4e0bf" d="M15973.975 16484.215h27.83v2.784h-27.83z" data-name="Rectangle 31135"/><path fill="#4fb769" d="M15973.975 16486.999h27.83v.365h-27.83z" data-name="Rectangle 31136"/><path fill="#b4e0bf" d="M15973.975 16489.833h27.83v2.784h-27.83z" data-name="Rectangle 31137"/><path fill="#4fb769" d="M15973.975 16492.617h27.83v.365h-27.83z" data-name="Rectangle 31138"/><path fill="#b4e0bf" d="M15973.975 16495.451h27.83v2.784h-27.83z" data-name="Rectangle 31139"/><path fill="#4fb769" d="M15973.975 16498.235h27.83v.365h-27.83z" data-name="Rectangle 31140"/><path fill="#b4e0bf" d="M15973.975 16502.974h27.83v2.784h-27.83z" data-name="Rectangle 31141"/><path fill="#4fb769" d="M15973.975 16505.758h27.83v.365h-27.83z" data-name="Rectangle 31142"/><path fill="#b4e0bf" d="M15973.975 16508.592h27.83v2.784h-27.83z" data-name="Rectangle 31143"/><path fill="#4fb769" d="M15973.975 16511.376h27.83v.365h-27.83z" data-name="Rectangle 31144"/><path fill="#b4e0bf" d="M15973.975 16514.21h27.83v2.784h-27.83z" data-name="Rectangle 31145"/><path fill="#4fb769" d="M15973.975 16516.994h27.83v.365h-27.83z" data-name="Rectangle 31146"/><path fill="#b4e0bf" d="M15973.975 16519.828h27.83v2.784h-27.83z" data-name="Rectangle 31147"/><path fill="#4fb769" d="M15973.975 16522.612h27.83v.365h-27.83z" data-name="Rectangle 31148"/><path fill="#9bd6a9" d="m15973.975 16478.597-18.343 8.766v2.784l18.343-8.766Z" data-name="Path 98492"/><path fill="none" stroke="#4fb769" stroke-width=".5" d="m15955.632 16490.147 18.343-8.766" data-name="Line 921"/><path fill="#9bd6a9" d="m15973.975 16484.215-18.343 8.766v2.784l18.343-8.766Z" data-name="Path 98493"/><path fill="none" stroke="#4fb769" stroke-width=".5" d="m15955.632 16495.765 18.343-8.766" data-name="Line 922"/><path fill="#9bd6a9" d="m15973.975 16489.833-18.343 8.766v2.784l18.343-8.766Z" data-name="Path 98494"/><path fill="none" stroke="#4fb769" stroke-width=".5" d="m15955.632 16501.383 18.343-8.766" data-name="Line 923"/><path fill="#9bd6a9" d="m15973.975 16495.451-18.343 8.766v2.784l18.343-8.766Z" data-name="Path 98495"/><path fill="none" stroke="#4fb769" stroke-width=".5" d="m15955.632 16507.001 18.343-8.766" data-name="Line 924"/><path fill="#9bd6a9" d="m15973.975 16502.974-18.343 8.766v2.783l18.343-8.766Z" data-name="Path 98496"/><path fill="none" stroke="#4fb769" stroke-width=".5" d="m15955.632 16514.524 18.343-8.766" data-name="Line 925"/><path fill="#9bd6a9" d="m15973.975 16508.592-18.343 8.766v2.784l18.343-8.766Z" data-name="Path 98497"/><path fill="none" stroke="#4fb769" stroke-width=".5" d="m15955.632 16520.142 18.343-8.766" data-name="Line 926"/><path fill="#b4e0bf" d="M15973.592 16516.36h32.456v2.784h-32.456z" data-name="Rectangle 31150"/><path fill="#4fb769" d="M15973.592 16519.144h32.456v.365h-32.456z" data-name="Rectangle 31151"/><path fill="#b4e0bf" d="M15973.592 16521.978h32.456v2.784h-32.456z" data-name="Rectangle 31152"/><path fill="#4fb769" d="M15973.592 16524.762h32.456v.365h-32.456z" data-name="Rectangle 31153"/><path fill="#b4e0bf" d="M15973.592 16527.596h32.456v2.784h-32.456z" data-name="Rectangle 31154"/><path fill="#4fb769" d="M15973.592 16530.38h32.456v.365h-32.456z" data-name="Rectangle 31155"/><path fill="#b4e0bf" d="M15973.592 16533.214h32.456v2.784h-32.456z" data-name="Rectangle 31156"/><path fill="#4fb769" d="M15973.592 16535.998h32.456v.365h-32.456z" data-name="Rectangle 31157"/><path fill="#b4e0bf" d="M15973.592 16540.737h32.456v2.784h-32.456z" data-name="Rectangle 31158"/><path fill="#4fb769" d="M15973.592 16543.521h32.456v.365h-32.456z" data-name="Rectangle 31159"/><path fill="#9bd6a9" d="m15973.567 16521.979-21.653 10.569-.01 2.778 21.7-10.38Z" data-name="Path 98501"/><path fill="none" stroke="#4fb769" stroke-width=".5" d="m15951.903 16535.325 21.715-10.38" data-name="Line 927"/><path fill="#9bd6a9" d="m15973.567 16516.303-21.653 10.569-.01 2.778 21.7-10.38Z" data-name="Path 98502"/><path fill="none" stroke="#4fb769" stroke-width=".5" d="m15951.903 16529.65 21.715-10.38" data-name="Line 928"/><path fill="#9bd6a9" d="m15973.567 16533.27-21.653 10.569-.01 2.778 21.7-10.38Z" data-name="Path 98503"/><path fill="none" stroke="#4fb769" stroke-width=".5" d="m15951.903 16546.617 21.715-10.38" data-name="Line 929"/><path fill="#9bd6a9" d="m15973.567 16527.596-21.653 10.569-.01 2.778 21.7-10.38Z" data-name="Path 98504"/><path fill="none" stroke="#4fb769" stroke-width=".5" d="m15951.903 16540.943 21.715-10.38" data-name="Line 930"/><path fill="#26a645" d="M15825.693 16508.33h24.743v.851h-24.743z" data-name="Rectangle 31196"/><path fill="#26a645" d="M15825.693 16516.018h24.743v.851h-24.743z" data-name="Rectangle 31197"/><path fill="#26a645" d="M15825.693 16523.706h24.743v.851h-24.743z" data-name="Rectangle 31198"/><path fill="#26a645" d="M15825.693 16531.394h24.743v.851h-24.743z" data-name="Rectangle 31199"/><path fill="#26a645" d="M15825.693 16539.082h24.743v.851h-24.743z" data-name="Rectangle 31200"/><path fill="#26a645" d="M15825.693 16546.771h24.743v.851h-24.743z" data-name="Rectangle 31201"/><path fill="#1ba13c" d="m15813.401 16514.827 12.292-5.649v-.851l-12.292 5.615Z" data-name="Path 98765"/><path fill="#1ba13c" d="m15813.401 16545.575 12.292-5.646v-.851l-12.292 5.615Z" data-name="Path 98778"/><path fill="#1ba13c" d="m15813.401 16537.853 12.292-5.647v-.851l-12.292 5.615Z" data-name="Path 98779"/><path fill="#1ba13c" d="m15813.401 16530.131 12.292-5.646v-.851l-12.292 5.615Z" data-name="Path 98780"/><path fill="#1ba13c" d="m15813.401 16522.408 12.292-5.646v-.851l-12.292 5.614Z" data-name="Path 98781"/><path fill="#1ba13c" d="m1325.913 738.715 24.743 10.041v13.592l-24.743-8.573Z" data-name="Path 98782" style="mix-blend-mode:screen;isolation:isolate" transform="translate(14499.78 15774.877)"/><path fill="#9fd8ad" d="M15827.15 16487.744v9.358h14.865v-10.184h-14.865Z" data-name="Path 98784"/><path fill="#5dbc74" d="m15816.343 16492.734 10.808-4.99v9.358h-1.458l-9.35 4.4Z" data-name="Path 98785"/><path fill="#26a645" d="m15814.859 16493.418 12.292-5.646v-.854l-12.292 5.615Z" data-name="Path 98786"/><path fill="#5dbc74" d="M15827.151 16486.918h15.463v.825h-15.463z" data-name="Rectangle 31213"/><path fill="#26a645" d="m15814.859 16500.094 12.292-5.646v-.851l-12.292 5.615Z" data-name="Path 98787"/><path fill="#5dbc74" d="M15827.151 16493.596h15.463v.825h-15.463z" data-name="Rectangle 31214"/><path fill="#26a645" d="M15735.688 16500.813h51.508v.851h-51.508z" data-name="Rectangle 31216"/><path fill="#26a645" d="M15735.688 16508.501h51.508v.851h-51.508z" data-name="Rectangle 31217"/><path fill="#26a645" d="M15735.688 16516.19h51.508v.851h-51.508z" data-name="Rectangle 31218"/><path fill="#26a645" d="M15735.688 16523.877h51.508v.851h-51.508z" data-name="Rectangle 31219"/><path fill="#26a645" d="M15735.688 16531.565h51.508v.851h-51.508z" data-name="Rectangle 31220"/><path fill="#26a645" d="M15735.688 16539.254h51.508v.851h-51.508z" data-name="Rectangle 31221"/><path fill="#26a645" d="M15735.688 16546.942h51.508v.851h-51.508z" data-name="Rectangle 31222"/><path fill="#fff" d="m15735.688 16505.024 51.508 24.245v8.789l-51.508-24.354Z" data-name="Path 98806" opacity=".41"/><path fill="#91d2a1" d="m15859.11 16475.12 10.855-22.713v15.903Z" data-name="Path 98919"/><path fill="#eaf7ed" d="M15907.959 16468.31h-37.993v-15.9Z" data-name="Path 98920"/><path fill="#eaf7ed" d="M15859.11 16479.203h48.848v3.526h-48.848z" data-name="Rectangle 31267"/><path fill="#34ab51" d="M15859.11 16482.73h48.848v.557h-48.848z" data-name="Rectangle 31268"/><path fill="#eaf7ed" d="M15859.11 16487.944h48.848v3.527h-48.848z" data-name="Rectangle 31269"/><path fill="#34ab51" d="M15859.11 16491.47h48.848v.557h-48.848z" data-name="Rectangle 31270"/><path fill="#eaf7ed" d="M15859.11 16496.685h48.848v3.526h-48.848z" data-name="Rectangle 31271"/><path fill="#34ab51" d="M15859.11 16500.211h48.848v.557h-48.848z" data-name="Rectangle 31272"/><path fill="#eaf7ed" d="M15859.11 16505.425h48.848v3.526h-48.848z" data-name="Rectangle 31273"/><path fill="#34ab51" d="M15859.11 16508.952h48.848v.557h-48.848z" data-name="Rectangle 31274"/><path fill="#eaf7ed" d="M15859.11 16513.592h48.848v3.526h-48.848z" data-name="Rectangle 31275"/><path fill="#34ab51" d="M15859.11 16517.118h48.848v.557h-48.848z" data-name="Rectangle 31276"/><path fill="#eaf7ed" d="M15859.11 16522.333h48.848v3.526h-48.848z" data-name="Rectangle 31277"/><path fill="#34ab51" d="M15859.11 16525.859h48.848v.557h-48.848z" data-name="Rectangle 31278"/><path fill="#eaf7ed" d="M15859.11 16531.073h48.848v3.526h-48.848z" data-name="Rectangle 31279"/><path fill="#34ab51" d="M15859.11 16534.6h48.848v.557h-48.848z" data-name="Rectangle 31280"/><path fill="#eaf7ed" d="M15859.11 16539.814h48.848v3.526h-48.848z" data-name="Rectangle 31281"/><path fill="#34ab51" d="M15859.11 16543.341h48.848v.557h-48.848z" data-name="Rectangle 31282"/><path fill="url(#c)" d="M0 0h37.516v150.681H0z" data-name="Rectangle 31114" transform="translate(15621.696 16491.565)"/><path fill="#edf7ef" d="M15669.43 16475.441v161.8h36.157v-146.488s-12.691-14.291-36.157-15.312Z" data-name="Path 98509"/><path fill="#cfebd6" d="m15669.43 16475.823-21.79-18.932s-3.352 29.209-4.31 41.65-2.825 37.233-2.873 43.813c-.193 26.5 10.057 94.388 10.057 94.388h18.917Z" data-name="Path 98510"/><path fill="#b4e0bf" d="M15673.98 16635.996h-4.55v-153.321l4.55 1.576Z" data-name="Path 98511"/><path fill="#76c78a" d="m15673.441 16550.318-3.472-.72v-5.1l3.472.784Z" data-name="Path 98528"/><path fill="none" stroke="#3fb05b" d="M15669.969 16549.598v-5.1l3.472.784" data-name="Path 98529"/><path fill="#76c78a" d="m15673.441 16557.73-3.472-.721v-5.1l3.472.777Z" data-name="Path 98530"/><path fill="none" stroke="#3fb05b" d="M15669.969 16557.009v-5.1l3.472.777" data-name="Path 98531"/><path fill="#76c78a" d="m15673.441 16565.143-3.472-.723v-5.1l3.472.771Z" data-name="Path 98532"/><path fill="none" stroke="#3fb05b" d="M15669.969 16564.42v-5.1l3.472.771" data-name="Path 98533"/><path fill="#76c78a" d="m15673.441 16572.556-3.472-.724v-5.1l3.472.764Z" data-name="Path 98534"/><path fill="none" stroke="#3fb05b" d="M15669.969 16571.832v-5.1l3.472.764" data-name="Path 98535"/><path fill="#76c78a" d="m15673.441 16579.969-3.472-.725v-5.1l3.472.757Z" data-name="Path 98536"/><path fill="none" stroke="#3fb05b" d="M15669.969 16579.244v-5.1l3.472.757" data-name="Path 98537"/><path fill="#76c78a" d="m15673.441 16587.382-3.472-.727v-5.1l3.472.751Z" data-name="Path 98538"/><path fill="none" stroke="#3fb05b" d="M15669.969 16586.656v-5.1l3.472.751" data-name="Path 98539"/><path fill="#76c78a" d="m15673.441 16594.796-3.472-.728v-5.1l3.472.744Z" data-name="Path 98540"/><path fill="none" stroke="#3fb05b" d="M15669.969 16594.067v-5.1l3.472.744" data-name="Path 98541"/><path fill="#76c78a" d="m15673.441 16602.208-3.472-.729v-5.1l3.472.737Z" data-name="Path 98542"/><path fill="none" stroke="#3fb05b" d="M15669.969 16601.478v-5.1l3.472.737" data-name="Path 98543"/><path fill="#76c78a" d="m15673.441 16609.621-3.472-.731v-5.1l3.472.731Z" data-name="Path 98544"/><path fill="none" stroke="#3fb05b" d="M15669.969 16608.89v-5.1l3.472.731" data-name="Path 98545"/><path fill="#b4e0bf" d="M15665.439 16631.998h-4.553v-153.321l4.55 1.576Z" data-name="Path 98546"/><path fill="#76c78a" d="m15664.901 16553.732-3.472-.723v-5.1l3.472.777Z" data-name="Path 98565"/><path fill="none" stroke="#3fb05b" d="M15661.429 16553.009v-5.1l3.472.777" data-name="Path 98566"/><path fill="#76c78a" d="m15664.901 16561.145-3.472-.723v-5.1l3.472.771Z" data-name="Path 98567"/><path fill="none" stroke="#3fb05b" d="M15661.429 16560.423v-5.1l3.472.771" data-name="Path 98568"/><path fill="#76c78a" d="m15664.901 16568.558-3.472-.724v-5.1l3.472.764Z" data-name="Path 98569"/><path fill="none" stroke="#3fb05b" d="M15661.429 16567.837v-5.1l3.472.764" data-name="Path 98570"/><path fill="#76c78a" d="m15664.901 16575.971-3.472-.726v-5.1l3.472.757Z" data-name="Path 98571"/><path fill="none" stroke="#3fb05b" d="M15661.429 16575.246v-5.1l3.472.757" data-name="Path 98572"/><path fill="#76c78a" d="m15664.901 16583.383-3.472-.727v-5.1l3.472.751Z" data-name="Path 98573"/><path fill="none" stroke="#3fb05b" d="M15661.429 16582.657v-5.1l3.472.751" data-name="Path 98574"/><path fill="#76c78a" d="m15664.901 16590.797-3.472-.728v-5.1l3.472.744Z" data-name="Path 98575"/><path fill="none" stroke="#3fb05b" d="M15661.429 16590.069v-5.1l3.472.744" data-name="Path 98576"/><path fill="#76c78a" d="m15664.901 16598.21-3.472-.729v-5.1l3.472.737Z" data-name="Path 98577"/><path fill="none" stroke="#3fb05b" d="M15661.429 16597.48v-5.1l3.472.737" data-name="Path 98578"/><path fill="#76c78a" d="m15664.901 16605.623-3.472-.731v-5.1l3.472.731Z" data-name="Path 98579"/><path fill="none" stroke="#3fb05b" d="M15661.429 16604.892v-5.1l3.472.731" data-name="Path 98580"/><path fill="#b4e0bf" d="M15656.24 16628.761h-4.55v-153.32l4.55 1.576Z" data-name="Path 98581"/><path fill="#76c78a" d="m15655.701 16550.496-3.472-.721v-5.1l3.472.777Z" data-name="Path 98600"/><path fill="none" stroke="#3fb05b" d="M15652.229 16549.779v-5.1l3.472.777" data-name="Path 98601"/><path fill="#76c78a" d="m15655.701 16557.91-3.472-.723v-5.1l3.472.771Z" data-name="Path 98602"/><path fill="none" stroke="#3fb05b" d="M15652.229 16557.187v-5.1l3.472.771" data-name="Path 98603"/><path fill="#76c78a" d="m15655.701 16565.322-3.472-.724v-5.1l3.472.764Z" data-name="Path 98604"/><path fill="none" stroke="#3fb05b" d="M15652.229 16564.598v-5.1l3.472.764" data-name="Path 98605"/><path fill="#76c78a" d="m15655.701 16572.735-3.472-.726v-5.1l3.472.757Z" data-name="Path 98606"/><path fill="none" stroke="#3fb05b" d="M15652.229 16572.009v-5.1l3.472.757" data-name="Path 98607"/><path fill="#76c78a" d="m15655.701 16580.148-3.472-.727v-5.1l3.472.751Z" data-name="Path 98608"/><path fill="none" stroke="#3fb05b" d="M15652.229 16579.421v-5.1l3.472.751" data-name="Path 98609"/><path fill="#76c78a" d="m15655.701 16587.561-3.472-.728v-5.1l3.472.744Z" data-name="Path 98610"/><path fill="none" stroke="#3fb05b" d="M15652.229 16586.833v-5.1l3.472.744" data-name="Path 98611"/><path fill="#76c78a" d="m15655.701 16594.974-3.472-.729v-5.1l3.472.737Z" data-name="Path 98612"/><path fill="none" stroke="#3fb05b" d="M15652.229 16594.245v-5.1l3.472.737" data-name="Path 98613"/><path fill="#76c78a" d="m15655.701 16602.386-3.472-.731v-5.1l3.472.731Z" data-name="Path 98614"/><path fill="none" stroke="#3fb05b" d="M15652.229 16601.655v-5.1l3.472.731" data-name="Path 98615"/><path fill="#76c78a" d="m15648.039 16553.731-3.472-.724v-5.1l3.472.791Z" data-name="Path 98626"/><path fill="none" stroke="#3fb05b" d="M15644.567 16553.007v-5.1l3.472.791" data-name="Path 98627"/><path fill="#b4e0bf" d="M15684.077 16638.519h-4.554V16485.2l4.55 1.576Z" data-name="Path 98628"/><path fill="#76c78a" d="m15683.538 16552.843-3.472-.72v-5.1l3.472.784Z" data-name="Path 98645"/><path fill="none" stroke="#3fb05b" d="M15680.066 16552.123v-5.1l3.472.784" data-name="Path 98646"/><path fill="#76c78a" d="m15683.538 16560.255-3.472-.721v-5.1l3.472.777Z" data-name="Path 98647"/><path fill="none" stroke="#3fb05b" d="M15680.066 16559.534v-5.1l3.472.777" data-name="Path 98648"/><path fill="#76c78a" d="m15683.538 16567.668-3.472-.723v-5.1l3.472.771Z" data-name="Path 98649"/><path fill="none" stroke="#3fb05b" d="M15680.066 16566.945v-5.1l3.472.771" data-name="Path 98650"/><path fill="#76c78a" d="m15683.538 16575.081-3.472-.724v-5.1l3.472.764Z" data-name="Path 98651"/><path fill="none" stroke="#3fb05b" d="M15680.066 16574.357v-5.1l3.472.764" data-name="Path 98652"/><path fill="#76c78a" d="m15683.538 16582.494-3.472-.725v-5.1l3.472.757Z" data-name="Path 98653"/><path fill="none" stroke="#3fb05b" d="M15680.066 16581.769v-5.1l3.472.757" data-name="Path 98654"/><path fill="#76c78a" d="m15683.538 16589.907-3.472-.727v-5.1l3.472.751Z" data-name="Path 98655"/><path fill="none" stroke="#3fb05b" d="M15680.066 16589.181v-5.1l3.472.751" data-name="Path 98656"/><path fill="#76c78a" d="m15683.538 16597.321-3.472-.728v-5.1l3.472.744Z" data-name="Path 98657"/><path fill="none" stroke="#3fb05b" d="M15680.066 16596.592v-5.1l3.472.744" data-name="Path 98658"/><path fill="#76c78a" d="m15683.538 16604.733-3.472-.729v-5.1l3.472.738Z" data-name="Path 98659"/><path fill="none" stroke="#3fb05b" d="M15680.066 16604.003v-5.1l3.472.738" data-name="Path 98660"/><path fill="#76c78a" d="m15683.538 16612.146-3.472-.731v-5.1l3.472.731Z" data-name="Path 98661"/><path fill="none" stroke="#3fb05b" d="M15680.066 16611.415v-5.1l3.472.731" data-name="Path 98662"/><path fill="#b4e0bf" d="M15694.772 16642.433h-4.55v-153.32l4.55 1.576Z" data-name="Path 98663"/><path fill="#76c78a" d="m15694.233 16549.343-3.472-.719v-5.1l3.472.791Z" data-name="Path 98678"/><path fill="none" stroke="#3fb05b" d="M15690.761 16548.624v-5.1l3.472.791" data-name="Path 98679"/><path fill="#76c78a" d="m15694.233 16556.756-3.472-.72v-5.1l3.472.784Z" data-name="Path 98680"/><path fill="none" stroke="#3fb05b" d="M15690.761 16556.035v-5.1l3.472.784" data-name="Path 98681"/><path fill="#76c78a" d="m15694.233 16564.169-3.472-.722v-5.1l3.472.777Z" data-name="Path 98682"/><path fill="none" stroke="#3fb05b" d="M15690.761 16563.447v-5.1l3.472.777" data-name="Path 98683"/><path fill="#76c78a" d="m15694.233 16571.582-3.472-.723v-5.1l3.472.771Z" data-name="Path 98684"/><path fill="none" stroke="#3fb05b" d="M15690.761 16570.859v-5.1l3.472.771" data-name="Path 98685"/><path fill="#76c78a" d="m15694.233 16578.994-3.472-.724v-5.1l3.472.764Z" data-name="Path 98686"/><path fill="none" stroke="#3fb05b" d="M15690.761 16578.27v-5.1l3.472.764" data-name="Path 98687"/><path fill="#76c78a" d="m15694.233 16586.407-3.472-.725v-5.1l3.472.757Z" data-name="Path 98688"/><path fill="none" stroke="#3fb05b" d="M15690.761 16585.682v-5.1l3.472.757" data-name="Path 98689"/><path fill="#76c78a" d="m15694.233 16593.82-3.472-.727v-5.1l3.472.751Z" data-name="Path 98690"/><path fill="none" stroke="#3fb05b" d="M15690.761 16593.094v-5.1l3.472.751" data-name="Path 98691"/><path fill="#76c78a" d="m15694.233 16601.234-3.472-.728v-5.1l3.472.744Z" data-name="Path 98692"/><path fill="none" stroke="#3fb05b" d="M15690.761 16600.505v-5.1l3.472.744" data-name="Path 98693"/><path fill="#76c78a" d="m15694.233 16608.647-3.472-.729v-5.1l3.472.737Z" data-name="Path 98694"/><path fill="none" stroke="#3fb05b" d="M15690.761 16607.917v-5.1l3.472.737" data-name="Path 98695"/><path fill="#76c78a" d="m15694.233 16616.06-3.472-.731v-5.1l3.472.731Z" data-name="Path 98696"/><path fill="none" stroke="#3fb05b" d="M15690.761 16615.325v-5.1l3.472.731" data-name="Path 98697"/><path fill="#b4e0bf" d="M15704.191 16646.15h-4.547v-153.32l4.55 1.576Z" data-name="Path 98698"/><path fill="#76c78a" d="m15703.652 16553.058-3.472-.719v-5.1l3.472.791Z" data-name="Path 98713"/><path fill="none" stroke="#3fb05b" d="M15700.18 16552.339v-5.1l3.472.791" data-name="Path 98714"/><path fill="#76c78a" d="m15703.652 16560.472-3.472-.72v-5.1l3.472.784Z" data-name="Path 98715"/><path fill="none" stroke="#3fb05b" d="M15700.18 16559.752v-5.1l3.472.784" data-name="Path 98716"/><path fill="#76c78a" d="m15703.652 16567.884-3.472-.722v-5.1l3.472.777Z" data-name="Path 98717"/><path fill="none" stroke="#3fb05b" d="M15700.18 16567.163v-5.1l3.472.777" data-name="Path 98718"/><path fill="#76c78a" d="m15703.652 16575.297-3.472-.723v-5.1l3.472.771Z" data-name="Path 98719"/><path fill="none" stroke="#3fb05b" d="M15700.18 16574.575v-5.1l3.472.771" data-name="Path 98720"/><path fill="#76c78a" d="m15703.652 16582.711-3.472-.724v-5.1l3.472.764Z" data-name="Path 98721"/><path fill="none" stroke="#3fb05b" d="M15700.18 16581.986v-5.1l3.472.764" data-name="Path 98722"/><path fill="#76c78a" d="m15703.652 16590.124-3.472-.725v-5.1l3.472.757Z" data-name="Path 98723"/><path fill="none" stroke="#3fb05b" d="M15700.18 16589.398v-5.1l3.472.757" data-name="Path 98724"/><path fill="#76c78a" d="m15703.652 16597.537-3.472-.727v-5.1l3.472.751Z" data-name="Path 98725"/><path fill="none" stroke="#3fb05b" d="M15700.18 16596.81v-5.1l3.472.751" data-name="Path 98726"/><path fill="#76c78a" d="m15703.652 16604.949-3.472-.728v-5.1l3.472.744Z" data-name="Path 98727"/><path fill="none" stroke="#3fb05b" d="M15700.18 16604.221v-5.1l3.472.744" data-name="Path 98728"/><path fill="#76c78a" d="m15703.652 16612.362-3.472-.729v-5.1l3.472.738Z" data-name="Path 98729"/><path fill="none" stroke="#3fb05b" d="M15700.18 16611.633v-5.1l3.472.738" data-name="Path 98730"/><path fill="#76c78a" d="m15703.652 16619.775-3.472-.731v-5.1l3.472.731Z" data-name="Path 98731"/><path fill="none" stroke="#3fb05b" d="M15700.18 16619.044v-5.1l3.472.731" data-name="Path 98732"/><path fill="#76c78a" d="M471.224 713.336s62.509 33.438 62.988 33.438v12.25l-36.876-26.144Z" data-name="Path 98734" opacity=".49" style="mix-blend-mode:screen;isolation:isolate" transform="translate(15171.375 15794.819)"/><path fill="url(#d)" d="m811.907 626.645-25.587 5.785v144.617h25.588Z" data-name="Path 98788" transform="translate(14923.78 15862.939)"/><path fill="#1ba13c" d="m15710.1 16630.32 25.588-5.646v-.851l-25.588 5.615Z" data-name="Path 98790"/><path fill="#1ba13c" d="m15710.1 16622.598 25.588-5.646v-.851l-25.588 5.615Z" data-name="Path 98791"/><path fill="#1ba13c" d="m15710.1 16614.875 25.588-5.646v-.851l-25.588 5.619Z" data-name="Path 98792"/><path fill="#1ba13c" d="m15710.1 16607.153 25.588-5.646v-.851l-25.588 5.615Z" data-name="Path 98793"/><path fill="#1ba13c" d="m15710.1 16599.695 25.588-5.647v-.851l-25.588 5.615Z" data-name="Path 98794"/><path fill="#1ba13c" d="m15710.1 16591.973 25.588-5.647v-.851l-25.588 5.615Z" data-name="Path 98795"/><path fill="#1ba13c" d="m15710.1 16584.25 25.588-5.646v-.851l-25.588 5.615Z" data-name="Path 98796"/><path fill="#1ba13c" d="m15710.1 16576.528 25.588-5.646v-.851l-25.588 5.615Z" data-name="Path 98797"/><path fill="#1ba13c" d="m15710.1 16568.806 25.588-5.646v-.851l-25.588 5.615Z" data-name="Path 98798"/><path fill="#1ba13c" d="m15710.1 16561.083 25.588-5.646v-.851l-25.588 5.615Z" data-name="Path 98799"/><path fill="#1ba13c" d="m15710.1 16553.361 25.588-5.646v-.851l-25.588 5.615Z" data-name="Path 98800"/><path fill="#a1d8af" d="M15763.481 16585.411h4.664v4.762h-4.664z" data-name="Rectangle 31237"/><path fill="none" stroke="#38ad55" d="M15763.481 16585.412h4.664v4.761" data-name="Path 98815"/><path fill="#a1d8af" d="M15763.481 16596.385h4.664v4.762h-4.664z" data-name="Rectangle 31238"/><path fill="none" stroke="#38ad55" d="M15763.481 16596.387h4.664v4.762" data-name="Path 98816"/><path fill="#8dd09d" d="M15763.635 16607.359h4.664v4.762h-4.664z" data-name="Rectangle 31239"/><path fill="none" stroke="#38ad55" d="M15763.635 16607.359h4.664v4.761" data-name="Path 98817"/><path fill="#8dd09d" d="M15763.635 16618.332h4.664v4.762h-4.664z" data-name="Rectangle 31240"/><path fill="none" stroke="#38ad55" d="M15763.635 16618.332h4.664v4.761" data-name="Path 98818"/><path fill="#7fca92" d="M15763.174 16629.306h4.664v4.762h-4.664z" data-name="Rectangle 31241"/><path fill="none" stroke="#38ad55" d="M15763.174 16629.306h4.664v4.761" data-name="Path 98819"/><path fill="#7fca92" d="M15763.174 16640.28h4.664v4.762h-4.664z" data-name="Rectangle 31242"/><path fill="none" stroke="#38ad55" d="M15763.174 16640.28h4.664v4.761" data-name="Path 98820"/><path fill="#a1d8af" d="M15775.829 16585.019h4.664v4.762h-4.664z" data-name="Rectangle 31243"/><path fill="none" stroke="#38ad55" d="M15775.829 16585.019h4.664v4.762" data-name="Path 98821"/><path fill="#a1d8af" d="M15775.829 16595.993h4.664v4.762h-4.664z" data-name="Rectangle 31244"/><path fill="none" stroke="#38ad55" d="M15775.829 16595.993h4.664v4.761" data-name="Path 98822"/><path fill="#8dd09d" d="M15775.982 16606.967h4.664v4.762h-4.664z" data-name="Rectangle 31245"/><path fill="none" stroke="#38ad55" d="M15775.983 16606.966h4.664v4.762" data-name="Path 98823"/><path fill="#8dd09d" d="M15775.982 16617.94h4.664v4.762h-4.664z" data-name="Rectangle 31246"/><path fill="none" stroke="#38ad55" d="M15775.983 16617.941h4.664v4.762" data-name="Path 98824"/><path fill="#7fca92" d="M15775.521 16628.914h4.664v4.762h-4.664z" data-name="Rectangle 31247"/><path fill="none" stroke="#38ad55" d="M15775.521 16628.914h4.664v4.761" data-name="Path 98825"/><path fill="#7fca92" d="M15775.521 16639.888h4.664v4.762h-4.664z" data-name="Rectangle 31248"/><path fill="none" stroke="#38ad55" d="M15775.521 16639.888h4.664v4.762" data-name="Path 98826"/><path fill="#e3f37f" d="m15744.378 16584.25 11.687-3.294v65.185h-11.687Z" data-name="Path 98844"/><path fill="url(#e)" d="M0 0h33.606v83.844H0z" data-name="Rectangle 31261" transform="translate(15599.264 16555.325)"/><path fill="#f7fbda" d="M15661.429 16604.892h61.465v34.277h-61.465z" data-name="Rectangle 31262"/><path fill="#b1dfbd" d="M0 0h53.816v3.983H0z" data-name="Rectangle 31263" style="mix-blend-mode:multiply;isolation:isolate" transform="translate(15665.664 16610.224)"/><path fill="#b1dfbd" d="M0 0h53.816v3.983H0z" data-name="Rectangle 31264" style="mix-blend-mode:multiply;isolation:isolate" transform="translate(15665.815 16618.769)"/><path fill="#b1dfbd" d="M0 0h53.816v3.983H0z" data-name="Rectangle 31265" style="mix-blend-mode:multiply;isolation:isolate" transform="translate(15665.815 16627.315)"/><path fill="#d1ecd8" d="m15661.428 16604.892-20.975 3.486v30.792h20.975Z" data-name="Path 98845"/><path fill="#b1dfbd" d="m484.28 1195.1-19.4 2.96v-3.406l19.4-3.406Z" data-name="Path 98846" style="mix-blend-mode:multiply;isolation:isolate" transform="translate(15176.363 15419.286)"/><path fill="#b1dfbd" d="m484.28 1234.824-19.4 2.96v-3.406l19.4-3.406Z" data-name="Path 98847" style="mix-blend-mode:multiply;isolation:isolate" transform="translate(15176.363 15388.072)"/><path fill="#b1dfbd" d="m484.28 1274.548-19.4 2.961v-3.409l19.4-3.406Z" data-name="Path 98848" style="mix-blend-mode:multiply;isolation:isolate" transform="translate(15176.363 15356.857)"/><path fill="#66c07c" d="M15599.264 16555.325h7.755v83.644h-7.755z" data-name="Rectangle 31266" opacity=".51"/><path fill="none" stroke="#fff" stroke-width="5" d="M15828.177 16581.716v1.285" data-name="Line 891"/><path fill="url(#c)" d="M0 0h37.516v150.681H0z" data-name="Rectangle 31113" transform="translate(15767.93 16459.175)"/><path fill="url(#f)" d="M0 0h37.516v150.681H0z" data-name="Rectangle 31116" transform="translate(16014.457 16489.004)"/><path fill="#ddf1e2" d="M15913.826 16411.555h45.507v293.785h-45.507z" data-name="Rectangle 31117"/><path fill="#81cb94" d="M15960.796 16411.555h4.657v293.428h-4.657z" data-name="Rectangle 31118"/><path fill="#e8f6eb" d="M15952.283 16421.565v271.39h-3.593v-271.39z" data-name="Rectangle 31119" opacity=".48"/><path fill="#34ab51" d="M15948.691 16421.565v271.39h-.567v-271.39z" data-name="Rectangle 31120"/><path fill="#e8f6eb" d="M15943.378 16421.565v271.39h-3.593v-271.39z" data-name="Rectangle 31121" opacity=".48"/><path fill="#34ab51" d="M15939.786 16421.565v271.39h-.567v-271.39z" data-name="Rectangle 31122"/><path fill="#e8f6eb" d="M15934.473 16421.565v271.39h-3.593v-271.39z" data-name="Rectangle 31123" opacity=".48"/><path fill="#34ab51" d="M15930.88 16421.565v271.39h-.567v-271.39z" data-name="Rectangle 31124"/><path fill="#e8f6eb" d="M15925.568 16421.565v271.39h-3.593v-271.39z" data-name="Rectangle 31125" opacity=".48"/><path fill="#34ab51" d="M15921.975 16421.565v271.39h-.567v-271.39z" data-name="Rectangle 31126"/><path fill="#74c688" d="M15903.483 16460.33h35.439v179.155h-35.439z" data-name="Rectangle 31129"/><path fill="#24a544" d="m15903.483 16639.485 11.6-.515s2.766-165.709-11.6-178.639Z" data-name="Path 98488"/><path fill="#24a544" d="m15938.922 16639.485-11.571.184s-2.9-163.6 12.289-179.339Z" data-name="Path 98489" opacity=".64"/><path fill="none" stroke="#fff" stroke-width="6" d="M15903.483 16550.047h35.78" data-name="Line 909"/><path fill="none" stroke="#fff" stroke-width="6" d="M15903.483 16556.517h35.742" data-name="Line 910"/><path fill="none" stroke="#fff" stroke-width="6" d="M15903.483 16562.988h35.704" data-name="Line 911"/><path fill="none" stroke="#fff" stroke-width="6" d="M15903.483 16569.459h35.666" data-name="Line 912"/><path fill="none" stroke="#fff" stroke-width="6" d="M15903.483 16575.929h35.628" data-name="Line 913"/><path fill="none" stroke="#fff" stroke-width="6" d="M15903.483 16582.4h35.591" data-name="Line 914"/><path fill="none" stroke="#fff" stroke-width="6" d="M15903.483 16588.871h35.553" data-name="Line 915"/><path fill="none" stroke="#fff" stroke-width="6" d="M15903.483 16595.342h35.515" data-name="Line 916"/><path fill="none" stroke="#fff" stroke-width="6" d="M15903.483 16601.812h35.477" data-name="Line 917"/><path fill="none" stroke="#fff" stroke-width="6" d="M15903.483 16608.283h35.44" data-name="Line 918"/><path fill="none" stroke="#fff" stroke-width="6" d="M15903.483 16614.753h35.402" data-name="Line 919"/><path fill="none" stroke="#fff" stroke-width="6" d="M15903.483 16621.224h35.364" data-name="Line 920"/><path fill="#66c07c" d="m15973.975 16459.176-18.343 11.932v112.356h18.343Z" data-name="Path 98490"/><path fill="#81cb94" d="M15973.632 16513.862h32.416v54.687h-32.416z" data-name="Rectangle 31149"/><path fill="#66c07c" d="m15970.655 16510.879-18.343 9.545v114.743h18.343Z" data-name="Path 98498"/><path fill="#eaf7ed" d="M15982.039 16489.005h11.7v93.166l-11.7.994Z" data-name="Path 98499" opacity=".56"/><path fill="#81cb94" d="M15955.948 16571.432v-14.119h3.953l-.377-61.862 11.13-5.154v24.027l-3.8 1.823v57.869Z" data-name="Path 98500" opacity=".57"/><path fill="#b4e0bf" d="M15973.592 16546.355h32.456v2.784h-32.456z" data-name="Rectangle 31160"/><path fill="#4fb769" d="M15973.592 16549.139h32.456v.365h-32.456z" data-name="Rectangle 31161"/><path fill="#b4e0bf" d="M15973.592 16551.973h32.456v2.784h-32.456z" data-name="Rectangle 31162"/><path fill="#4fb769" d="M15973.592 16554.757h32.456v.365h-32.456z" data-name="Rectangle 31163"/><path fill="#b4e0bf" d="M15973.592 16557.591h32.456v2.784h-32.456z" data-name="Rectangle 31164"/><path fill="#4fb769" d="M15973.592 16560.375h32.456v.365h-32.456z" data-name="Rectangle 31165"/><path fill="#9bd6a9" d="m15973.561 16546.412-21.653 10.569-.01 2.778 21.7-10.38Z" data-name="Path 98505"/><path fill="none" stroke="#4fb769" stroke-width=".5" d="m15951.897 16559.759 21.715-10.38" data-name="Line 931"/><path fill="#9bd6a9" d="m15973.561 16540.738-21.654 10.569-.01 2.778 21.7-10.38Z" data-name="Path 98506"/><path fill="none" stroke="#4fb769" stroke-width=".5" d="m15951.897 16554.084 21.715-10.38" data-name="Line 932"/><path fill="#9bd6a9" d="m15973.555 16557.648-21.653 10.569-.01 2.778 21.7-10.38Z" data-name="Path 98507"/><path fill="none" stroke="#4fb769" stroke-width=".5" d="m15951.892 16570.994 21.715-10.38" data-name="Line 933"/><path fill="#9bd6a9" d="m15973.555 16551.973-21.653 10.569-.01 2.778 21.7-10.38Z" data-name="Path 98508"/><path fill="none" stroke="#4fb769" stroke-width=".5" d="m15951.892 16565.32 21.715-10.38" data-name="Line 934"/><path fill="#fbfded" d="M15959.925 16577.23h46.988v61.739h-46.988z" data-name="Rectangle 31166"/><path fill="#fbfded" d="M15962.748 16568.957h41.342v8.518h-41.342z" data-name="Rectangle 31167"/><path fill="#7fca92" d="M15977.371 16570.542h3.473v4.57h-3.473z" data-name="Rectangle 31168"/><path fill="none" stroke="#38ad55" d="M15977.372 16570.542h3.473v4.57" data-name="Path 98735"/><path fill="#7fca92" d="M15987.596 16570.542h3.473v4.57h-3.473z" data-name="Rectangle 31169"/><path fill="none" stroke="#38ad55" d="M15987.597 16570.542h3.473v4.57" data-name="Path 98736"/><path fill="#7fca92" d="M15996.601 16570.542h3.473v4.57h-3.473z" data-name="Rectangle 31170"/><path fill="none" stroke="#38ad55" d="M15996.601 16570.542h3.473v4.57" data-name="Path 98737"/><path fill="#c4e7cc" d="M15968.131 16580.895h3.473v4.57h-3.473z" data-name="Rectangle 31171"/><path fill="#c4e7cc" stroke="#38ad55" d="M15968.131 16580.894h3.473v4.57" data-name="Path 98738"/><path fill="#c4e7cc" d="M15978.356 16580.895h3.473v4.57h-3.473z" data-name="Rectangle 31172"/><path fill="#c4e7cc" stroke="#38ad55" d="M15978.356 16580.894h3.473v4.57" data-name="Path 98739"/><path fill="#c4e7cc" d="M15987.36 16580.895h3.473v4.57h-3.473z" data-name="Rectangle 31173"/><path fill="#c4e7cc" stroke="#38ad55" d="M15987.36 16580.894h3.473v4.57" data-name="Path 98740"/><path fill="#c4e7cc" d="M15997.423 16580.977h3.473v4.57h-3.473z" data-name="Rectangle 31174"/><path fill="#c4e7cc" stroke="#38ad55" d="M15997.423 16580.977h3.473v4.57" data-name="Path 98741"/><path fill="#c4e7cc" d="M15968.131 16591.217h3.473v4.57h-3.473z" data-name="Rectangle 31175"/><path fill="#c4e7cc" stroke="#38ad55" d="M15968.131 16591.217h3.473v4.57" data-name="Path 98742"/><path fill="#c4e7cc" d="M15978.356 16591.217h3.473v4.57h-3.473z" data-name="Rectangle 31176"/><path fill="#c4e7cc" stroke="#38ad55" d="M15978.356 16591.217h3.473v4.57" data-name="Path 98743"/><path fill="#c4e7cc" d="M15987.36 16591.217h3.473v4.57h-3.473z" data-name="Rectangle 31177"/><path fill="#c4e7cc" stroke="#38ad55" d="M15987.36 16591.217h3.473v4.57" data-name="Path 98744"/><path fill="#c4e7cc" d="M15997.423 16591.217h3.473v4.57h-3.473z" data-name="Rectangle 31178"/><path fill="#c4e7cc" stroke="#38ad55" d="M15997.423 16591.217h3.473v4.57" data-name="Path 98745"/><path fill="#bde4c6" d="M15968.131 16602.034h3.473v4.57h-3.473z" data-name="Rectangle 31179"/><path fill="#bde4c6" stroke="#38ad55" d="M15968.131 16602.034h3.473v4.57" data-name="Path 98746"/><path fill="#bde4c6" d="M15978.356 16602.034h3.473v4.57h-3.473z" data-name="Rectangle 31180"/><path fill="#bde4c6" stroke="#38ad55" d="M15978.356 16602.034h3.473v4.57" data-name="Path 98747"/><path fill="#bde4c6" d="M15987.36 16602.034h3.473v4.57h-3.473z" data-name="Rectangle 31181"/><path fill="#bde4c6" stroke="#38ad55" d="M15987.36 16602.034h3.473v4.57" data-name="Path 98748"/><path fill="#bde4c6" d="M15997.423 16602.116h3.473v4.57h-3.473z" data-name="Rectangle 31182"/><path fill="#bde4c6" stroke="#38ad55" d="M15997.423 16602.117h3.473v4.57" data-name="Path 98749"/><path fill="#bde4c6" d="M15968.131 16612.356h3.473v4.57h-3.473z" data-name="Rectangle 31183"/><path fill="#bde4c6" stroke="#38ad55" d="M15968.131 16612.356h3.473v4.57" data-name="Path 98750"/><path fill="#bde4c6" d="M15978.356 16612.356h3.473v4.57h-3.473z" data-name="Rectangle 31184"/><path fill="#bde4c6" stroke="#38ad55" d="M15978.356 16612.356h3.473v4.57" data-name="Path 98751"/><path fill="#bde4c6" d="M15987.36 16612.356h3.473v4.57h-3.473z" data-name="Rectangle 31185"/><path fill="#bde4c6" stroke="#38ad55" d="M15987.36 16612.356h3.473v4.57" data-name="Path 98752"/><path fill="#bde4c6" d="M15997.423 16612.356h3.473v4.57h-3.473z" data-name="Rectangle 31186"/><path fill="#bde4c6" stroke="#38ad55" d="M15997.423 16612.356h3.473v4.57" data-name="Path 98753"/><path fill="#7fca92" d="M15968.131 16622.889h3.473v4.57h-3.473z" data-name="Rectangle 31187"/><path fill="none" stroke="#38ad55" d="M15968.131 16622.889h3.473v4.57" data-name="Path 98754"/><path fill="#7fca92" d="M15978.356 16622.889h3.473v4.57h-3.473z" data-name="Rectangle 31188"/><path fill="none" stroke="#38ad55" d="M15978.356 16622.889h3.473v4.57" data-name="Path 98755"/><path fill="#7fca92" d="M15987.36 16622.889h3.473v4.57h-3.473z" data-name="Rectangle 31189"/><path fill="none" stroke="#38ad55" d="M15987.36 16622.889h3.473v4.57" data-name="Path 98756"/><path fill="#7fca92" d="M15997.423 16622.972h3.473v4.57h-3.473z" data-name="Rectangle 31190"/><path fill="none" stroke="#38ad55" d="M15997.423 16622.972h3.473v4.57" data-name="Path 98757"/><path fill="#7fca92" d="M15968.131 16633.211h3.473v4.57h-3.473z" data-name="Rectangle 31191"/><path fill="none" stroke="#38ad55" d="M15968.131 16633.208h3.473v4.57" data-name="Path 98758"/><path fill="#7fca92" d="M15978.356 16633.211h3.473v4.57h-3.473z" data-name="Rectangle 31192"/><path fill="none" stroke="#38ad55" d="M15978.356 16633.208h3.473v4.57" data-name="Path 98759"/><path fill="#7fca92" d="M15987.36 16633.211h3.473v4.57h-3.473z" data-name="Rectangle 31193"/><path fill="none" stroke="#38ad55" d="M15987.36 16633.208h3.473v4.57" data-name="Path 98760"/><path fill="#7fca92" d="M15997.423 16633.211h3.473v4.57h-3.473z" data-name="Rectangle 31194"/><path fill="none" stroke="#38ad55" d="M15997.423 16633.208h3.473v4.57" data-name="Path 98761"/><path fill="#ddf1e2" d="m15962.748 16568.957-6.973 1.845v7.5l6.973-1.107Z" data-name="Path 98762"/><path fill="#eef8b2" d="m15959.927 16577.23-7.094.735v61h7.094Z" data-name="Path 98763"/><path fill="url(#g)" d="M0 0h24.743v150.401H0z" data-name="Rectangle 31195" transform="translate(15825.693 16497.101)"/><path fill="#26a645" d="M15825.693 16554.458h24.743v.851h-24.743z" data-name="Rectangle 31202"/><path fill="#26a645" d="M15825.693 16562.147h24.743v.851h-24.743z" data-name="Rectangle 31203"/><path fill="#26a645" d="M15825.693 16569.835h24.743v.851h-24.743z" data-name="Rectangle 31204"/><path fill="#26a645" d="M15825.693 16577.523h24.743v.851h-24.743z" data-name="Rectangle 31205"/><path fill="#26a645" d="M15825.693 16585.211h24.743v.851h-24.743z" data-name="Rectangle 31206"/><path fill="#26a645" d="M15825.693 16592.899h24.743v.851h-24.743z" data-name="Rectangle 31207"/><path fill="#26a645" d="M15825.693 16600.587h24.743v.851h-24.743z" data-name="Rectangle 31208"/><path fill="#26a645" d="M15825.693 16608.275h24.743v.851h-24.743z" data-name="Rectangle 31209"/><path fill="#26a645" d="M15825.693 16615.963h24.743v.851h-24.743z" data-name="Rectangle 31210"/><path fill="#26a645" d="M15825.693 16623.651h24.743v.851h-24.743z" data-name="Rectangle 31211"/><path fill="#26a645" d="M15825.693 16631.339h24.743v.851h-24.743z" data-name="Rectangle 31212"/><path fill="url(#h)" d="m1280.826 661.734-12.292 5.785v144.616h12.292Z" data-name="Path 98764" transform="translate(14544.867 15835.367)"/><path fill="#1ba13c" d="m15813.401 16637.836 12.292-5.646v-.851l-12.292 5.615Z" data-name="Path 98766"/><path fill="#1ba13c" d="m15813.401 16630.114 12.292-5.646v-.851l-12.292 5.615Z" data-name="Path 98767"/><path fill="#1ba13c" d="m15813.401 16622.392 12.292-5.646v-.851l-12.292 5.615Z" data-name="Path 98768"/><path fill="#1ba13c" d="m15813.401 16614.67 12.292-5.646v-.851l-12.292 5.615Z" data-name="Path 98769"/><path fill="#1ba13c" d="m15813.401 16607.211 12.292-5.646v-.851l-12.292 5.615Z" data-name="Path 98770"/><path fill="#1ba13c" d="m15813.401 16599.489 12.292-5.646v-.851l-12.292 5.615Z" data-name="Path 98771"/><path fill="#1ba13c" d="m15813.401 16591.767 12.292-5.646v-.851l-12.292 5.615Z" data-name="Path 98772"/><path fill="#1ba13c" d="m15813.401 16584.045 12.292-5.646v-.851l-12.292 5.615Z" data-name="Path 98773"/><path fill="#1ba13c" d="m15813.401 16576.323 12.292-5.646v-.851l-12.292 5.615Z" data-name="Path 98774"/><path fill="#1ba13c" d="m15813.401 16568.6 12.292-5.646v-.851l-12.292 5.615Z" data-name="Path 98775"/><path fill="#1ba13c" d="m15813.401 16560.878 12.292-5.646v-.851l-12.292 5.615Z" data-name="Path 98776"/><path fill="#1ba13c" d="m15813.401 16553.156 12.292-5.646v-.851l-12.292 5.615Z" data-name="Path 98777"/><path fill="url(#i)" d="M0 0h51.508v150.401H0z" data-name="Rectangle 31215" transform="translate(15735.688 16489.584)"/><path fill="#26a645" d="M15735.688 16554.63h51.508v.851h-51.508z" data-name="Rectangle 31223"/><path fill="#26a645" d="M15735.688 16562.318h51.508v.851h-51.508z" data-name="Rectangle 31224"/><path fill="#26a645" d="M15735.688 16570.006h51.508v.851h-51.508z" data-name="Rectangle 31225"/><path fill="#26a645" d="M15735.688 16577.694h51.508v.851h-51.508z" data-name="Rectangle 31226"/><path fill="#26a645" d="M15735.688 16585.382h51.508v.851h-51.508z" data-name="Rectangle 31227"/><path fill="#26a645" d="M15735.688 16593.07h51.508v.851h-51.508z" data-name="Rectangle 31228"/><path fill="#26a645" d="M15735.688 16600.758h51.508v.851h-51.508z" data-name="Rectangle 31229"/><path fill="#26a645" d="M15735.688 16608.446h51.508v.851h-51.508z" data-name="Rectangle 31230"/><path fill="#26a645" d="M15735.688 16616.135h51.508v.851h-51.508z" data-name="Rectangle 31231"/><path fill="#26a645" d="M15735.688 16623.823h51.508v.851h-51.508z" data-name="Rectangle 31232"/><path fill="#fff" d="m15735.688 16520.206 51.508 26.159v2.68l-51.508-26.434Z" data-name="Path 98807" opacity=".41"/><path fill="#d4ec3a" d="M16023.074 16640.571h-8.962v-114.598h8.962z" data-name="Rectangle 31234"/><path fill="#f1f9be" d="M16023.076 16525.973v113.816h13.787l.8-111.394Z" data-name="Path 98811"/><path fill="#fbfded" d="M16023.074 16640.571h-8.962v-114.598h8.962z" data-name="Rectangle 31235"/><path fill="#88ce99" d="M16025.388 16530.745v107.968h1.939v-107.6Z" data-name="Path 98812"/><path fill="#88ce99" d="M16029.768 16531.513v107.878h1.939v-107.508Z" data-name="Path 98813"/><path fill="#88ce99" d="M16034.004 16532.588v107.879h1.939v-107.482Z" data-name="Path 98814"/><path fill="#fbfded" d="M15756.064 16580.967h55.141v69.227h-55.141z" data-name="Rectangle 31236"/><path fill="#a1d8af" d="M15788.28 16584.8h4.664v4.762h-4.664z" data-name="Rectangle 31249"/><path fill="none" stroke="#38ad55" d="M15788.28 16584.8h4.664v4.761" data-name="Path 98827"/><path fill="#a1d8af" d="M15788.28 16595.774h4.664v4.762h-4.664z" data-name="Rectangle 31250"/><path fill="none" stroke="#38ad55" d="M15788.28 16595.773h4.664v4.761" data-name="Path 98828"/><path fill="#8dd09d" d="M15788.434 16606.747h4.664v4.762h-4.664z" data-name="Rectangle 31251"/><path fill="none" stroke="#38ad55" d="M15788.434 16606.748h4.664v4.762" data-name="Path 98829"/><path fill="#8dd09d" d="M15788.434 16617.721h4.664v4.762h-4.664z" data-name="Rectangle 31252"/><path fill="none" stroke="#38ad55" d="M15788.434 16617.726h4.664v4.761" data-name="Path 98830"/><path fill="#7fca92" d="M15787.972 16628.695h4.664v4.762h-4.664z" data-name="Rectangle 31253"/><path fill="none" stroke="#38ad55" d="M15787.973 16628.695h4.664v4.761" data-name="Path 98831"/><path fill="#7fca92" d="M15787.972 16639.668h4.664v4.762h-4.664z" data-name="Rectangle 31254"/><path fill="none" stroke="#38ad55" d="M15787.973 16639.669h4.664v4.761" data-name="Path 98832"/><path fill="#a1d8af" d="M15800.627 16584.408h4.664v4.762h-4.664z" data-name="Rectangle 31255"/><path fill="none" stroke="#38ad55" d="M15800.628 16584.408h4.664v4.761" data-name="Path 98833"/><path fill="#a1d8af" d="M15800.627 16595.382h4.664v4.762h-4.664z" data-name="Rectangle 31256"/><path fill="none" stroke="#38ad55" d="M15800.628 16595.382h4.664v4.762" data-name="Path 98834"/><path fill="#8dd09d" d="M15800.781 16606.355h4.664v4.762h-4.664z" data-name="Rectangle 31257"/><path fill="none" stroke="#38ad55" d="M15800.781 16606.356h4.664v4.762" data-name="Path 98835"/><path fill="#8dd09d" d="M15800.781 16617.329h4.664v4.762h-4.664z" data-name="Rectangle 31258"/><path fill="none" stroke="#38ad55" d="M15800.781 16617.329h4.664v4.761" data-name="Path 98836"/><path fill="#7fca92" d="M15800.32 16628.303h4.664v4.762h-4.664z" data-name="Rectangle 31259"/><path fill="none" stroke="#38ad55" d="M15800.32 16628.303h4.664v4.762" data-name="Path 98837"/><path fill="#7fca92" d="M15800.32 16639.276h4.664v4.762h-4.664z" data-name="Rectangle 31260"/><path fill="none" stroke="#38ad55" d="M15800.32 16639.276h4.664v4.761" data-name="Path 98838"/><path fill="#bfe5c8" d="M15903.17 16468.314h-33.2v171.669h37.993v-171.669Z" data-name="Path 98917"/><path fill="#76c78a" d="m15869.965 16468.314-10.855 6.805v164.864h10.855Z" data-name="Path 98918"/><path fill="#eaf7ed" d="M15859.11 16547.981h48.848v3.526h-48.848z" data-name="Rectangle 31283"/><path fill="#34ab51" d="M15859.11 16551.507h48.848v.557h-48.848z" data-name="Rectangle 31284"/><path fill="#eaf7ed" d="M15859.11 16556.722h48.848v3.526h-48.848z" data-name="Rectangle 31285"/><path fill="#34ab51" d="M15859.11 16560.248h48.848v.557h-48.848z" data-name="Rectangle 31286"/><path fill="#eaf7ed" d="M15859.11 16565.463h48.848v3.526h-48.848z" data-name="Rectangle 31287"/><path fill="#34ab51" d="M15859.11 16568.989h48.848v.557h-48.848z" data-name="Rectangle 31288"/><path fill="#eaf7ed" d="M15859.11 16574.203h48.848v3.527h-48.848z" data-name="Rectangle 31289"/><path fill="#34ab51" d="M15859.11 16577.73h48.848v.557h-48.848z" data-name="Rectangle 31290"/><path fill="#eaf7ed" d="M15859.11 16582.37h48.848v3.526h-48.848z" data-name="Rectangle 31291"/><path fill="#34ab51" d="M15859.11 16585.896h48.848v.557h-48.848z" data-name="Rectangle 31292"/><path fill="#eaf7ed" d="M15859.11 16591.111h48.848v3.526h-48.848z" data-name="Rectangle 31293"/><path fill="#34ab51" d="M15859.11 16594.637h48.848v.557h-48.848z" data-name="Rectangle 31294"/><path fill="#eaf7ed" d="M15859.11 16599.852h48.848v3.526h-48.848z" data-name="Rectangle 31295"/><path fill="#34ab51" d="M15859.11 16603.378h48.848v.557h-48.848z" data-name="Rectangle 31296"/><path fill="#eaf7ed" d="M15859.11 16608.593h48.848v3.527h-48.848z" data-name="Rectangle 31297"/><path fill="#34ab51" d="M15859.11 16612.119h48.848v.557h-48.848z" data-name="Rectangle 31298"/><path fill="#76c78a" d="m1492.763 527.355-10.855 6.805v164.864h10.855Z" data-name="Path 98921" opacity=".5" style="mix-blend-mode:multiply;isolation:isolate" transform="translate(14377.202 15940.959)"/></g></g></g><g fill="#34b976" data-name="Group 55220"><path d="M269.573 329.506a5.669 5.669 0 1 1 2.607 11.032 5.669 5.669 0 1 1-2.607-11.032Z" data-name="Path 4672" opacity=".3"/><path d="M320.24 243.97a3.835 3.835 0 1 1-3-4.5 3.836 3.836 0 0 1 3 4.5Z" data-name="Path 4633" opacity=".3"/></g><g fill="#34b976" data-name="Group 55221"><path d="M796.937 432.937a2.823 2.823 0 1 1 1.264 5.502 2.823 2.823 0 1 1-1.264-5.502Z" data-name="Path 4673" opacity=".3"/><path d="M781.584 364.321a6.398 6.398 0 1 1 5.138 11.718 6.398 6.398 0 1 1-5.138-11.718Z" data-name="Path 4674" opacity=".3"/></g></g></g></svg>